<svg width="50" height="20" viewBox="0 0 50 20" fill="none" xmlns="http://www.w3.org/2000/svg">
<rect width="50" height="20" rx="4" fill="#3B82F6"/>
<path d="M15.5504 10.1818C15.5504 11.4242 15.3232 12.4924 14.8686 13.3864C14.4141 14.2765 13.791 14.9621 12.9993 15.4432C12.2114 15.9205 11.3156 16.1591 10.3118 16.1591C9.30421 16.1591 8.40459 15.9205 7.61293 15.4432C6.82505 14.9621 6.20384 14.2746 5.74929 13.3807C5.29474 12.4867 5.06747 11.4205 5.06747 10.1818C5.06747 8.93939 5.29474 7.87311 5.74929 6.98295C6.20384 6.08901 6.82505 5.40341 7.61293 4.92614C8.40459 4.44508 9.30421 4.20455 10.3118 4.20455C11.3156 4.20455 12.2114 4.44508 12.9993 4.92614C13.791 5.40341 14.4141 6.08901 14.8686 6.98295C15.3232 7.87311 15.5504 8.93939 15.5504 10.1818ZM13.8118 10.1818C13.8118 9.23485 13.6584 8.4375 13.3516 7.78977C13.0485 7.13826 12.6319 6.64583 12.1016 6.3125C11.575 5.97538 10.9785 5.80682 10.3118 5.80682C9.64134 5.80682 9.04285 5.97538 8.51634 6.3125C7.98982 6.64583 7.57315 7.13826 7.26634 7.78977C6.9633 8.4375 6.81179 9.23485 6.81179 10.1818C6.81179 11.1288 6.9633 11.928 7.26634 12.5795C7.57315 13.2273 7.98982 13.7197 8.51634 14.0568C9.04285 14.3902 9.64134 14.5568 10.3118 14.5568C10.9785 14.5568 11.575 14.3902 12.1016 14.0568C12.6319 13.7197 13.0485 13.2273 13.3516 12.5795C13.6584 11.928 13.8118 11.1288 13.8118 10.1818ZM16.6655 5.875V4.36364H25.6712V5.875H22.0405V16H20.2905V5.875H16.6655ZM27.0874 5.875V4.36364H36.093V5.875H32.4624V16H30.7124V5.875H27.0874ZM38.0831 16V4.36364H39.8388V14.4886H45.1115V16H38.0831Z" fill="#FAFAFA"/>
</svg>
